<?xml version="1.0" encoding="UTF-8"?>
<!DOCTYPE svg PUBLIC "-//W3C//DTD SVG 1.1//EN" "http://www.w3.org/Graphics/SVG/1.1/DTD/svg11.dtd">
<svg xmlns="http://www.w3.org/2000/svg" version="1.1" width="3750px" height="3750px" style="shape-rendering:geometricPrecision; text-rendering:geometricPrecision; image-rendering:optimizeQuality; fill-rule:evenodd; clip-rule:evenodd" xmlns:xlink="http://www.w3.org/1999/xlink">
<g><path style="opacity:0.997" fill="#3ca0fe" d="M 1840.5,83.5 C 1886.15,80.1443 1923.32,95.8109 1952,130.5C 2125.29,364.524 2344.46,543.524 2609.5,667.5C 2715.9,715.196 2825.9,752.363 2939.5,779C 3016.44,796.077 3094.44,808.744 3173.5,817C 3206.61,819.521 3239.61,822.021 3272.5,824.5C 3297.16,828.912 3318.16,839.912 3335.5,857.5C 3336.32,858.386 3337.32,858.719 3338.5,858.5C 3338.28,859.675 3338.61,860.675 3339.5,861.5C 3357.41,879.334 3367.91,901.001 3371,926.5C 3372.44,1001.91 3370.77,1077.24 3366,1152.5C 3347.82,1398.25 3305.82,1639.58 3240,1876.5C 3181.58,2080.71 3104.41,2277.54 3008.5,2467C 2969.35,2542.47 2927.35,2615.97 2882.5,2687.5C 2815.5,2620.5 2748.5,2553.5 2681.5,2486.5C 2680.83,2313.46 2680.17,2140.46 2679.5,1967.5C 2557.46,1845.63 2435.29,1723.96 2313,1602.5C 2312.52,1601.55 2312.35,1600.55 2312.5,1599.5C 2301.57,1591.57 2291.9,1582.24 2283.5,1571.5C 2282.62,1570.75 2281.62,1570.25 2280.5,1570C 2263.92,1553.42 2247.42,1536.92 2231,1520.5C 2230.52,1519.55 2230.35,1518.55 2230.5,1517.5C 2229.5,1517.5 2228.5,1517.5 2227.5,1517.5C 2227.5,1516.5 2227.5,1515.5 2227.5,1514.5C 2226.45,1514.65 2225.45,1514.48 2224.5,1514C 2222.2,1511.7 2220.2,1509.2 2218.5,1506.5C 2217.68,1505.61 2216.68,1505.28 2215.5,1505.5C 2215.5,1504.5 2215.5,1503.5 2215.5,1502.5C 2214.45,1502.65 2213.45,1502.48 2212.5,1502C 2205,1494.5 2197.5,1487 2190,1479.5C 2189.52,1478.55 2189.35,1477.55 2189.5,1476.5C 2186.33,1476.34 2184.33,1474.67 2183.5,1471.5C 2180.51,1470.51 2178.51,1468.51 2177.5,1465.5C 2174.51,1464.51 2172.51,1462.51 2171.5,1459.5C 2158.42,1445.94 2144.92,1432.94 2131,1420.5C 2130.52,1419.55 2130.35,1418.55 2130.5,1417.5C 2128.1,1417.61 2126.26,1416.61 2125,1414.5C 2124.33,1289.83 2124.33,1165.17 2125,1040.5C 2183.84,1009.25 2211.5,959.914 2208,892.5C 2197.87,824.542 2159.54,782.208 2093,765.5C 2051,758.046 2012.16,765.88 1976.5,789C 1971.13,793.029 1966.13,797.529 1961.5,802.5C 1960.68,803.386 1959.68,803.719 1958.5,803.5C 1958.65,804.552 1958.48,805.552 1958,806.5C 1926.71,838.936 1913.04,877.936 1917,923.5C 1924.11,974.993 1950.28,1012.99 1995.5,1037.5C 1996.17,1180.5 1996.83,1323.5 1997.5,1466.5C 2182.72,1651.26 2367.72,1836.26 2552.5,2021.5C 2553.33,2194.17 2553.83,2366.83 2554,2539.5C 2638.68,2624.68 2723.51,2709.68 2808.5,2794.5C 2808.83,2795.5 2809.17,2796.5 2809.5,2797.5C 2800.95,2810.91 2792.12,2824.24 2783,2837.5C 2757.07,2872.93 2730.57,2907.93 2703.5,2942.5C 2680.83,2969.83 2658.17,2997.17 2635.5,3024.5C 2633.83,3025.83 2632.17,3027.17 2630.5,3028.5C 2520.73,2919.39 2411.39,2810.06 2302.5,2700.5C 2301.67,2594.5 2301.17,2488.5 2301,2382.5C 2259.17,2340.27 2217.17,2298.27 2175,2256.5C 2174.52,2255.55 2174.35,2254.55 2174.5,2253.5C 2172.57,2253.27 2170.9,2252.44 2169.5,2251C 2166.67,2247.5 2163.5,2244.33 2160,2241.5C 2158.56,2240.1 2157.73,2238.43 2157.5,2236.5C 2156.45,2236.65 2155.45,2236.48 2154.5,2236C 1888.06,1969.12 1620.89,1701.95 1353,1434.5C 1351.62,1432.94 1350.79,1431.1 1350.5,1429C 1369.24,1359.37 1349.9,1303.2 1292.5,1260.5C 1251.3,1235.31 1207.63,1230.15 1161.5,1245C 1108.97,1266.57 1077.3,1305.41 1066.5,1361.5C 1062.04,1401.13 1071.04,1437.13 1093.5,1469.5C 1097.79,1474.62 1102.29,1479.62 1107,1484.5C 1107.48,1485.45 1107.65,1486.45 1107.5,1487.5C 1109.43,1487.73 1111.1,1488.56 1112.5,1490C 1139.94,1515.38 1172.44,1528.55 1210,1529.5C 1215.17,1529.23 1220.34,1528.89 1225.5,1528.5C 1237.55,1527.05 1249.21,1524.55 1260.5,1521C 1564.23,1824.73 1868.06,2128.56 2172,2432.5C 2172.33,2538.5 2172.67,2644.5 2173,2750.5C 2296.69,2874.19 2420.36,2997.86 2544,3121.5C 2544.78,3122.94 2544.61,3124.28 2543.5,3125.5C 2498.33,3173.17 2451.66,3219.34 2403.5,3264C 2368.75,3294.75 2333.75,3325.09 2298.5,3355C 2295.83,3358.33 2293.17,3358.33 2290.5,3355C 2169.5,3233.83 2048.5,3112.67 1927.5,2991.5C 1926.67,2841.83 1926.17,2692.17 1926,2542.5C 1811.19,2427.53 1696.69,2313.19 1582.5,2199.5C 1581.95,2198.23 1581.62,2196.89 1581.5,2195.5C 1599.95,2128.64 1582.29,2073.31 1528.5,2029.5C 1471.09,1992.21 1413.76,1992.21 1356.5,2029.5C 1303.19,2072.81 1285.52,2127.98 1303.5,2195C 1320.28,2240.24 1351.28,2271.24 1396.5,2288C 1427.83,2297.86 1458.83,2297.36 1489.5,2286.5C 1592.94,2388.69 1695.94,2491.36 1798.5,2594.5C 1799.33,2744.17 1799.83,2893.83 1800,3043.5C 1931.07,3174.24 2061.9,3305.4 2192.5,3437C 2191.73,3439.07 2190.4,3440.74 2188.5,3442C 2111.39,3498.74 2032.06,3552.4 1950.5,3603C 1920.18,3620.64 1889.85,3638.31 1859.5,3656C 1854.92,3656.88 1850.58,3656.22 1846.5,3654C 1605.15,3518.62 1387.82,3352.79 1194.5,3156.5C 1165.31,3125.41 1136.15,3094.41 1107,3063.5C 961.007,2897.68 834.84,2717.18 728.5,2522C 681.922,2433.65 638.922,2343.65 599.5,2252C 512.927,2041.4 447.427,1824.57 403,1601.5C 373.974,1450.72 354.14,1298.72 343.5,1145.5C 338.96,1071.9 337.46,998.233 339,924.5C 339.946,914.569 342.446,905.069 346.5,896C 360.796,865.374 383.629,843.54 415,830.5C 422.243,828.181 429.576,826.181 437,824.5C 469.824,821.93 502.657,819.43 535.5,817C 692.679,801.449 845.345,766.283 993.5,711.5C 1135.3,657.286 1267.3,585.952 1389.5,497.5C 1533.5,391.354 1658.34,266.354 1764,122.5C 1784.85,100.487 1810.35,87.4869 1840.5,83.5 Z"/></g>
<g><path style="opacity:0.992" fill="#3ca0fe" d="M 2051.5,828.5 C 2093.83,824.233 2122.33,841.9 2137,881.5C 2144.52,912.944 2136.35,939.444 2112.5,961C 2098.42,971.291 2082.59,975.791 2065,974.5C 2029.52,974.694 2005.85,958.028 1994,924.5C 1984.99,882.697 1999.49,852.197 2037.5,833C 2042.29,831.478 2046.95,829.978 2051.5,828.5 Z"/></g>
<g><path style="opacity:0.993" fill="#3c9ffe" d="M 1197.5,1309.5 C 1243.83,1308.74 1271.33,1331.07 1280,1376.5C 1281.42,1407.38 1269.25,1431.21 1243.5,1448C 1220.96,1459.45 1197.96,1460.45 1174.5,1451C 1136.94,1428.68 1124.77,1396.51 1138,1354.5C 1149.73,1328.72 1169.56,1313.72 1197.5,1309.5 Z"/></g>
<g><path style="opacity:0.992" fill="#3c9ffe" d="M 1428.5,2084.5 C 1465.19,2081.76 1491.69,2096.76 1508,2129.5C 1519.46,2162.5 1512.62,2191 1487.5,2215C 1456.63,2237.49 1425.3,2238.15 1393.5,2217C 1366.25,2192.08 1359.08,2162.24 1372,2127.5C 1383.53,2103.46 1402.36,2089.13 1428.5,2084.5 Z"/></g>
</svg>
