<?xml version="1.0" encoding="UTF-8"?>
<!DOCTYPE svg PUBLIC "-//W3C//DTD SVG 1.1//EN" "http://www.w3.org/Graphics/SVG/1.1/DTD/svg11.dtd">
<svg xmlns="http://www.w3.org/2000/svg" version="1.1" width="3750px" height="3750px" style="shape-rendering:geometricPrecision; text-rendering:geometricPrecision; image-rendering:optimizeQuality; fill-rule:evenodd; clip-rule:evenodd" xmlns:xlink="http://www.w3.org/1999/xlink">
<g><path style="opacity:0.997" fill="#3ca0fe" d="M 1856.5,602.5 C 1888.96,599.802 1915.46,610.802 1936,635.5C 1963.83,674.469 1994.5,711.136 2028,745.5C 2029.67,747.833 2031.33,750.167 2033,752.5C 2199.74,925.931 2401.07,1040.93 2637,1097.5C 2715.35,1114.77 2794.52,1125.61 2874.5,1130C 2908.61,1136.12 2931.78,1155.29 2944,1187.5C 2945.16,1192.47 2946.16,1197.47 2947,1202.5C 2948.45,1320.57 2940.45,1437.91 2923,1554.5C 2911.94,1624.25 2898.94,1693.58 2884,1762.5C 2850.69,1903.79 2805.69,2041.12 2749,2174.5C 2747.62,2175.55 2746.62,2176.88 2746,2178.5C 2715.03,2251.77 2679.37,2322.43 2639,2390.5C 2627.27,2410.87 2615.6,2431.21 2604,2451.5C 2602.85,2454.15 2601.01,2456.15 2598.5,2457.5C 2550.49,2410.32 2502.99,2362.65 2456,2314.5C 2455.67,2191.5 2455.33,2068.5 2455,1945.5C 2323.36,1813.53 2191.36,1681.86 2059,1550.5C 2058.33,1461.5 2058.33,1372.5 2059,1283.5C 2087.66,1270.56 2106.33,1248.89 2115,1218.5C 2124.04,1181.89 2116.54,1148.89 2092.5,1119.5C 2059.44,1087.47 2020.78,1078.64 1976.5,1093C 1934.64,1111.39 1912.64,1143.56 1910.5,1189.5C 1911.88,1230.98 1930.55,1261.64 1966.5,1281.5C 1967.33,1383.5 1967.83,1485.5 1968,1587.5C 2100,1719.5 2232,1851.5 2364,1983.5C 2364.33,2106.5 2364.67,2229.5 2365,2352.5C 2426.16,2413.33 2487,2474.5 2547.5,2536C 2510.43,2590.1 2470.59,2642.27 2428,2692.5C 2425.34,2695.32 2422.51,2697.99 2419.5,2700.5C 2341.51,2623.01 2263.68,2545.35 2186,2467.5C 2185.67,2391.83 2185.33,2316.17 2185,2240.5C 1959.33,2015.12 1734.66,1790.79 1511,1567.5C 1509.37,1565.55 1508.2,1563.38 1507.5,1561C 1520.66,1511.57 1506.99,1471.57 1466.5,1441C 1427.8,1417.67 1389.13,1417.67 1350.5,1441C 1308.26,1473.41 1295.09,1515.25 1311,1566.5C 1338.88,1622.02 1383.05,1642.19 1443.5,1627C 1660,1843.5 1876.5,2060 2093,2276.5C 2093.33,2352.17 2093.67,2427.83 2094,2503.5C 2182.1,2590.72 2269.76,2678.39 2357,2766.5C 2357.67,2767.83 2357.67,2769.17 2357,2770.5C 2324.08,2805.08 2290.25,2838.58 2255.5,2871C 2230.86,2892.3 2206.19,2913.64 2181.5,2935C 2180.5,2935.67 2179.5,2935.67 2178.5,2935C 2091.69,2848.53 2005.19,2761.69 1919,2674.5C 1918.67,2567.83 1918.33,2461.17 1918,2354.5C 1835.81,2273.06 1753.81,2191.39 1672,2109.5C 1675.28,2098.01 1677.45,2086.17 1678.5,2074C 1676.6,2040.87 1663.26,2013.53 1638.5,1992C 1594.76,1962.05 1551.09,1962.05 1507.5,1992C 1464.26,2033.08 1457.09,2079.91 1486,2132.5C 1506.96,2160.74 1535.13,2176.07 1570.5,2178.5C 1582.64,2178.24 1594.47,2176.24 1606,2172.5C 1607.22,2172.86 1608.39,2173.36 1609.5,2174C 1682,2246.5 1754.5,2319 1827,2391.5C 1827.33,2498.17 1827.67,2604.83 1828,2711.5C 1921.07,2805.2 2014.24,2898.7 2107.5,2992C 2031.67,3050.43 1951.5,3102.6 1867,3148.5C 1865.83,3148.33 1864.67,3148.17 1863.5,3148C 1659.22,3033.78 1479.05,2888.95 1323,2713.5C 1204.8,2577.49 1105.8,2428.16 1026,2265.5C 944.311,2096.46 883.311,1920.12 843,1736.5C 813.09,1595.55 794.423,1453.21 787,1309.5C 786.333,1271.5 786.333,1233.5 787,1195.5C 794.997,1167.84 811.997,1147.84 838,1135.5C 844.976,1132.96 852.142,1131.13 859.5,1130C 1035.19,1121.5 1202.19,1079.33 1360.5,1003.5C 1466.31,950.168 1562.64,883.334 1649.5,803C 1662.98,789.192 1676.81,775.692 1691,762.5C 1710,741.5 1729,720.5 1748,699.5C 1767.44,674.715 1786.94,649.882 1806.5,625C 1814.32,618.918 1822.66,613.585 1831.5,609C 1839.77,606.066 1848.11,603.899 1856.5,602.5 Z"/></g>
<g><path style="opacity:0.993" fill="#3ca0fe" d="M 2010.5,1144.5 C 2039.08,1141.7 2058.92,1153.36 2070,1179.5C 2076.49,1202.73 2070.65,1222.23 2052.5,1238C 2048.39,1241.39 2043.72,1243.72 2038.5,1245C 2028.55,1246.5 2018.55,1246.83 2008.5,1246C 1992.07,1242.91 1980.23,1233.75 1973,1218.5C 1964.21,1195.86 1968.04,1175.69 1984.5,1158C 1992.27,1151.61 2000.94,1147.11 2010.5,1144.5 Z"/></g>
<g><path style="opacity:0.992" fill="#3c9ffe" d="M 1410.5,1481.5 C 1439.89,1479.26 1459.39,1491.93 1469,1519.5C 1473.59,1541.06 1467.76,1559.23 1451.5,1574C 1433.47,1586 1414.47,1587.67 1394.5,1579C 1370.63,1564.09 1362.47,1542.92 1370,1515.5C 1377.41,1496.74 1390.91,1485.4 1410.5,1481.5 Z"/></g>
<g><path style="opacity:0.992" fill="#3ca0fe" d="M 1577.5,2023.5 C 1599.42,2023.21 1616.26,2032.21 1628,2050.5C 1639.71,2078.68 1633.54,2101.85 1609.5,2120C 1581.15,2133.73 1557.31,2128.23 1538,2103.5C 1524.28,2075.44 1529.44,2051.61 1553.5,2032C 1561.03,2027.44 1569.03,2024.6 1577.5,2023.5 Z"/></g>
</svg>
